<svg id="visual" xmlns="http://www.w3.org/2000/svg" xmlns:xlink="http://www.w3.org/1999/xlink" version="1.1"><rect x="0" y="0" fill="#000000"></rect><path d="M0 479L148 404L295 439L443 443L591 426L738 396L886 435L1034 400L1182 480L1329 390L1477 397L1625 399L1772 414L1920 472L1920 0L1772 0L1625 0L1477 0L1329 0L1182 0L1034 0L886 0L738 0L591 0L443 0L295 0L148 0L0 0Z" fill="#4e4e4e"></path><path d="M0 348L148 327L295 325L443 398L591 361L738 383L886 368L1034 331L1182 399L1329 336L1477 311L1625 418L1772 405L1920 379L1920 0L1772 0L1625 0L1477 0L1329 0L1182 0L1034 0L886 0L738 0L591 0L443 0L295 0L148 0L0 0Z" fill="#595959"></path><path d="M0 331L148 284L295 253L443 223L591 242L738 337L886 248L1034 312L1182 293L1329 249L1477 268L1625 278L1772 327L1920 252L1920 0L1772 0L1625 0L1477 0L1329 0L1182 0L1034 0L886 0L738 0L591 0L443 0L295 0L148 0L0 0Z" fill="#646464"></path><path d="M0 184L148 221L295 176L443 183L591 270L738 172L886 215L1034 228L1182 236L1329 259L1477 260L1625 256L1772 190L1920 189L1920 0L1772 0L1625 0L1477 0L1329 0L1182 0L1034 0L886 0L738 0L591 0L443 0L295 0L148 0L0 0Z" fill="#717171"></path><path d="M0 206L148 202L295 90L443 163L591 183L738 196L886 126L1034 173L1182 171L1329 188L1477 192L1625 173L1772 98L1920 177L1920 0L1772 0L1625 0L1477 0L1329 0L1182 0L1034 0L886 0L738 0L591 0L443 0L295 0L148 0L0 0Z" fill="#808080"></path><path d="M0 25L148 65L295 35L443 94L591 69L738 119L886 46L1034 58L1182 51L1329 124L1477 92L1625 114L1772 8L1920 91L1920 0L1772 0L1625 0L1477 0L1329 0L1182 0L1034 0L886 0L738 0L591 0L443 0L295 0L148 0L0 0Z" fill="#8f8f8f"></path></svg>